<?xml version="1.0" encoding="UTF-8" standalone="no"?>
<!-- Created with Inkscape (http://www.inkscape.org/) -->

<svg
   xmlns:dc="http://purl.org/dc/elements/1.1/"
   xmlns:cc="http://creativecommons.org/ns#"
   xmlns:rdf="http://www.w3.org/1999/02/22-rdf-syntax-ns#"
   xmlns:svg="http://www.w3.org/2000/svg"
   xmlns="http://www.w3.org/2000/svg"
   xmlns:sodipodi="http://sodipodi.sourceforge.net/DTD/sodipodi-0.dtd"
   xmlns:inkscape="http://www.inkscape.org/namespaces/inkscape"
   width="64px"
   height="64px"
   id="svg3821"
   version="1.1"
   inkscape:version="0.48.4 r9939"
   sodipodi:docname="ultimate-sport.svg"
   inkscape:export-filename="/home/punchagan/Downloads/ultimate-sport.png"
   inkscape:export-xdpi="89.129593"
   inkscape:export-ydpi="89.129593">
  <defs
     id="defs3823">
    <filter
       id="filter2988"
       inkscape:label="Torn edges"
       inkscape:menu="Distort"
       inkscape:menu-tooltip="Displace the outside of shapes and pictures without altering their content"
       height="1.4"
       y="-0.2"
       width="1.4"
       x="-0.2"
       color-interpolation-filters="sRGB">
      <feTurbulence
         id="feTurbulence2990"
         baseFrequency="0.0061282051282051265"
         numOctaves="5"
         type="fractalNoise"
         result="result91"
         seed="0" />
      <feDisplacementMap
         id="feDisplacementMap2992"
         in2="result91"
         scale="25"
         result="result5"
         xChannelSelector="R"
         in="SourceGraphic" />
      <feComposite
         id="feComposite2994"
         in2="result5"
         in="SourceGraphic"
         operator="atop" />
    </filter>
  </defs>
  <sodipodi:namedview
     id="base"
     pagecolor="#ffffff"
     bordercolor="#666666"
     borderopacity="1.0"
     inkscape:pageopacity="0.0"
     inkscape:pageshadow="2"
     inkscape:zoom="11"
     inkscape:cx="32.740928"
     inkscape:cy="29.636009"
     inkscape:current-layer="layer1"
     showgrid="true"
     inkscape:document-units="px"
     inkscape:grid-bbox="true"
     inkscape:window-width="1920"
     inkscape:window-height="1026"
     inkscape:window-x="0"
     inkscape:window-y="27"
     inkscape:window-maximized="1" />
  <metadata
     id="metadata3826">
    <rdf:RDF>
      <cc:Work
         rdf:about="">
        <dc:format>image/svg+xml</dc:format>
        <dc:type
           rdf:resource="http://purl.org/dc/dcmitype/StillImage" />
        <dc:title />
      </cc:Work>
    </rdf:RDF>
  </metadata>
  <g
     id="layer1"
     inkscape:label="Layer 1"
     inkscape:groupmode="layer">
    <text
       xml:space="preserve"
       style="font-size:40px;font-style:normal;font-variant:normal;font-weight:normal;font-stretch:normal;line-height:125%;letter-spacing:0px;word-spacing:0px;fill:#d40000;fill-opacity:1;stroke:none;filter:url(#filter2988);font-family:Ubuntu;-inkscape-font-specification:Ubuntu"
       x="25.004114"
       y="42.776924"
       id="text3037"
       sodipodi:linespacing="125%"
       transform="matrix(0.9593726,0,0,1,3.1602698,0)"><tspan
         sodipodi:role="line"
         id="tspan3039"
         x="25.004114"
         y="42.776924"
         style="font-size:40px;font-style:normal;font-variant:normal;font-weight:normal;font-stretch:normal;fill:#d40000;font-family:Ubuntu;-inkscape-font-specification:Ubuntu">♥</tspan></text>
    <text
       xml:space="preserve"
       style="font-size:14px;font-style:normal;font-variant:normal;font-weight:normal;font-stretch:normal;line-height:125%;letter-spacing:0px;word-spacing:0px;fill:#000000;fill-opacity:1;stroke:none;filter:url(#filter2996);font-family:Ubuntu;-inkscape-font-specification:Ubuntu"
       x="4.4236097"
       y="61.260059"
       id="text3041"
       sodipodi:linespacing="125%"><tspan
         sodipodi:role="line"
         id="tspan3043"
         x="4.4236097"
         y="61.260059"
         style="font-size:14px;font-style:normal;font-variant:normal;font-weight:normal;font-stretch:normal;font-family:Ubuntu;-inkscape-font-specification:Ubuntu">Ultimate</tspan></text>
    <rect
       style="fill:#ff0000;fill-opacity:0;stroke:#000000;stroke-width:0.99788815;stroke-linecap:butt;stroke-linejoin:round;stroke-miterlimit:1;stroke-opacity:1;stroke-dasharray:none;stroke-dashoffset:0"
       id="rect3889"
       width="63.365746"
       height="63.274834"
       x="0.1807622"
       y="0.54439867"
       rx="0"
       ry="30.364647" />
    <path
       style="fill:#000000"
       d="m 13.237186,45.830397 c -0.2441,-0.143219 -0.349166,-0.248462 -0.444347,-0.445073 -0.07137,-0.147436 -0.07806,-0.206867 -0.05785,-0.514409 0.01258,-0.191244 0.0499,-0.42134 0.08297,-0.511326 0.226279,-0.615701 0.272418,-0.888134 0.205219,-1.21181 -0.0293,-0.141126 -0.03657,-0.335467 -0.02023,-0.541977 l 0.02545,-0.321953 0.325267,-0.317918 c 0.366886,-0.358605 0.574689,-0.713967 0.647216,-1.106808 0.02284,-0.123724 0.07388,-0.364518 0.113409,-0.535088 0.05124,-0.221084 0.08231,-0.565587 0.108191,-1.199773 0.01999,-0.489295 0.0452,-0.990864 0.0561,-1.114587 0.02146,-0.243842 0.260491,-1.044691 0.434328,-1.455125 0.131815,-0.311227 0.173443,-0.552576 0.221074,-1.281847 0.02018,-0.309314 0.0472,-0.622112 0.05996,-0.695103 0.02004,-0.114498 0.005,-0.154507 -0.109464,-0.29154 -0.238658,-0.285657 -0.223396,-0.499618 0.09256,-1.297489 0.08102,-0.204597 0.140845,-0.390187 0.132949,-0.412419 -0.0079,-0.02222 -0.03965,0.01861 -0.07056,0.0908 -0.03091,0.07217 -0.133277,0.299944 -0.22748,0.506151 -0.0942,0.206212 -0.182816,0.45929 -0.196914,0.562391 -0.04031,0.294788 -0.132741,0.543706 -0.224137,0.603587 -0.0461,0.03025 -0.171862,0.06537 -0.279426,0.07811 -0.222988,0.0264 -0.232855,0.04027 -0.302134,0.423771 -0.05135,0.284294 -0.198144,0.623517 -0.43259,0.999668 -0.16142,0.258994 -0.171714,0.293658 -0.283946,0.956438 -0.09454,0.55825 -0.158624,0.807682 -0.340458,1.325081 -0.123196,0.350558 -0.289194,0.777407 -0.368886,0.948561 -0.07969,0.17115 -0.214768,0.542329 -0.300172,0.824838 -0.150243,0.496982 -0.154554,0.525828 -0.132764,0.888584 0.01239,0.206212 0.03571,0.611132 0.05183,0.899827 0.01614,0.288696 0.04055,0.542952 0.05426,0.565012 0.01372,0.02204 0.04326,0.224522 0.06559,0.449912 0.0505,0.509205 0.112948,0.731609 0.312574,1.113163 0.131193,0.250756 0.156625,0.334313 0.155419,0.510591 -0.0019,0.285547 -0.101962,0.47457 -0.335058,0.63335 -0.135775,0.09249 -0.213358,0.121701 -0.285101,0.107351 -0.05422,-0.01083 -0.117902,-3.47e-4 -0.14153,0.02327 -0.03229,0.03229 -0.04298,0.03077 -0.04298,-0.006 0,-0.02697 -0.0225,-0.04036 -0.05003,-0.02982 -0.08765,0.03362 -0.309242,-0.09786 -0.566954,-0.33645 -0.231316,-0.214146 -0.259474,-0.257793 -0.375002,-0.581137 -0.0687,-0.19228 -0.1448,-0.48099 -0.169117,-0.641579 -0.02431,-0.160589 -0.07658,-0.408758 -0.11613,-0.551489 -0.03956,-0.142726 -0.07056,-0.29815 -0.06891,-0.345391 0.0015,-0.04725 -0.0083,-0.121677 -0.02212,-0.165409 -0.01852,-0.05858 0.0071,-0.116344 0.09768,-0.219412 0.109354,-0.124549 0.115864,-0.143794 0.05935,-0.175424 -0.09281,-0.05194 -0.07813,-0.165793 0.05033,-0.39031 0.22097,-0.386217 0.339317,-1.307094 0.358448,-2.789133 0.01054,-0.817896 0.0284,-1.153357 0.06872,-1.2935 0.02996,-0.10407 0.07453,-0.307319 0.09905,-0.451664 0.06769,-0.398469 0.245338,-0.964597 0.450685,-1.436232 0.260096,-0.597396 0.348696,-0.961543 0.323478,-1.329492 -0.01135,-0.165695 -0.04464,-0.330087 -0.07677,-0.379114 -0.03157,-0.0482 -0.199299,-0.15078 -0.378382,-0.231436 -0.28495,-0.128334 -0.321664,-0.156059 -0.321664,-0.242911 0,-0.152517 0.306464,-0.745113 0.514826,-0.995479 0.103382,-0.124227 0.215638,-0.279385 0.249465,-0.344793 0.09113,-0.176231 0.116895,-0.534546 0.06008,-0.83564 -0.04806,-0.254683 -0.04696,-0.264626 0.05147,-0.459147 0.06633,-0.131107 0.112385,-0.302167 0.135206,-0.502234 0.03875,-0.339887 0.102507,-0.52043 0.22103,-0.626033 0.04406,-0.03927 0.08023,-0.0899 0.08032,-0.112479 7.6e-5,-0.0226 0.05063,-0.116981 0.112323,-0.209773 0.07502,-0.112845 0.112208,-0.215804 0.112317,-0.310899 1.71e-4,-0.169298 0.103144,-0.687173 0.157926,-0.794396 0.02127,-0.04165 0.08938,-0.129312 0.15134,-0.194806 l 0.112645,-0.119079 -0.02659,-0.354773 c -0.01814,-0.241659 -0.01363,-0.362789 0.0141,-0.379912 0.02237,-0.01382 0.04069,-0.04202 0.04069,-0.06264 0,-0.02061 -0.01947,-0.02546 -0.04331,-0.01073 -0.02683,0.01657 -0.0331,0.0103 -0.01652,-0.01652 0.01472,-0.02378 0.04687,-0.04369 0.0714,-0.04421 0.0492,-9.73e-4 0.175874,-0.2319 0.175874,-0.320552 0,-0.104882 0.192802,-0.436797 0.26463,-0.455581 0.07004,-0.01833 0.06998,-0.02079 -0.0028,-0.113297 -0.04093,-0.05201 -0.07439,-0.121956 -0.07439,-0.155427 0,-0.03348 -0.04302,-0.141687 -0.09562,-0.240486 -0.09686,-0.181938 -0.173249,-0.635672 -0.160746,-0.954747 0.0043,-0.103785 -0.01913,-0.182053 -0.07508,-0.253164 -0.04454,-0.05661 -0.08097,-0.132266 -0.08097,-0.168115 0,-0.10171 -0.260548,-0.935949 -0.344954,-1.104502 -0.04164,-0.08319 -0.117392,-0.195747 -0.168327,-0.250159 -0.05093,-0.05441 -0.147494,-0.250486 -0.21457,-0.435728 -0.153381,-0.423602 -0.414413,-0.75074 -0.782985,-0.981287 -0.275837,-0.172536 -0.408302,-0.338705 -0.476033,-0.597125 -0.09108,-0.347528 -0.164625,-0.862473 -0.166747,-1.167555 -0.0019,-0.272261 0.01192,-0.345999 0.09489,-0.506151 0.126149,-0.24352 0.239545,-0.29644 0.802719,-0.374607 0.247451,-0.03433 0.514228,-0.08365 0.592838,-0.109574 l 0.14292,-0.0471 -0.199488,-0.137394 c -0.109715,-0.07556 -0.231235,-0.137394 -0.270039,-0.137394 -0.121719,0 -0.398563,-0.160076 -0.419228,-0.242408 -0.01078,-0.04293 -0.05893,-0.102969 -0.107009,-0.13341 -0.04808,-0.03044 -0.198699,-0.14814 -0.334711,-0.261558 -0.197033,-0.164294 -0.251492,-0.232884 -0.267926,-0.337434 -0.01135,-0.07217 -0.06522,-0.27804 -0.11974,-0.45748 -0.08742,-0.287779 -0.09385,-0.343834 -0.05445,-0.47531 0.02455,-0.08198 0.103401,-0.219366 0.175191,-0.305296 0.129639,-0.155167 0.164012,-0.300671 0.0963,-0.407613 -0.04165,-0.0658 0.02037,-0.253093 0.0931,-0.280994 0.03353,-0.01287 0.05362,-0.07413 0.05362,-0.163382 0,-0.148277 0.08379,-0.309113 0.161468,-0.309934 0.0246,-2.62e-4 0.158149,-0.09177 0.296764,-0.203349 0.27567,-0.221915 0.389778,-0.275414 0.452865,-0.212323 0.04912,0.04912 0.200874,0.05478 0.229441,0.0085 0.01111,-0.01795 0.07108,-0.04283 0.13329,-0.05527 l 0.113111,-0.0226 -0.0641,-0.134407 c -0.05456,-0.114417 -0.0562,-0.139289 -0.01101,-0.167228 0.07756,-0.04793 0.262257,-0.0043 0.414831,0.09792 0.163875,0.109835 0.200566,0.112622 0.146235,0.01111 -0.02303,-0.04302 -0.03319,-0.08688 -0.02255,-0.09749 0.03594,-0.03594 0.09926,0.02973 0.09926,0.102911 0,0.08357 0.08353,0.09659 0.144934,0.0226 0.02289,-0.02759 0.109479,-0.0705 0.19239,-0.09534 0.132351,-0.03965 0.172394,-0.03562 0.32804,0.03323 0.24945,0.110347 0.346939,0.212204 0.346939,0.362494 0,0.112693 0.0105,0.124687 0.109112,0.124687 0.07085,0 0.176255,0.05307 0.300543,0.151316 0.170519,0.134788 0.186829,0.159911 0.149345,0.229954 -0.06162,0.115143 -0.01614,0.316407 0.13625,0.602918 0.127545,0.239797 0.141606,0.253073 0.268012,0.253073 0.13019,0 0.132854,0.0028 0.110579,0.121853 -0.01496,0.07978 -0.08129,0.174336 -0.192152,0.273852 -0.133314,0.119673 -0.169326,0.177318 -0.169326,0.271065 0,0.06549 -0.02749,0.18775 -0.06107,0.271701 -0.05801,0.144981 -0.05367,0.42909 0.0081,0.529005 0.04202,0.06797 0.276022,-0.246592 0.338615,-0.455168 0.03404,-0.113419 0.107589,-0.292214 0.163457,-0.397329 0.05587,-0.105114 0.112917,-0.223216 0.126787,-0.262451 0.05218,-0.147617 0.129269,-0.24294 0.289759,-0.358273 0.09098,-0.06539 0.249783,-0.194564 0.352889,-0.287067 0.103101,-0.09249 0.26841,-0.218244 0.367351,-0.279441 0.130309,-0.08059 0.185975,-0.141657 0.201948,-0.22152 0.01211,-0.06064 0.06279,-0.138833 0.112584,-0.173767 0.196796,-0.138053 0.396963,-0.352954 0.486782,-0.522618 0.05191,-0.09805 0.24464,-0.407229 0.428293,-0.687069 0.183652,-0.279839 0.333914,-0.537742 0.333914,-0.573121 0,-0.222091 0.194047,-0.788418 0.477163,-1.392599 0.657562,-1.403283 0.814922,-1.907506 0.848298,-2.7182275 0.03286,-0.798209 0.210533,-1.553554 0.418113,-1.777534 0.04831,-0.05212 0.148301,-0.102659 0.230101,-0.116297 0.07956,-0.01325 0.198585,-0.05146 0.264478,-0.08488 0.123467,-0.06261 0.126701,-0.06206 0.386341,0.06538 0.0859,0.04216 0.08733,0.165689 0.0038,0.348544 -0.05808,0.127498 -0.22898,0.672196 -0.22898,0.729818 0,0.0056 0.01392,0.01011 0.03087,0.01011 0.017,0 0.111967,-0.118681 0.211079,-0.263733 0.198482,-0.290495 0.294688,-0.366702 0.376844,-0.298521 0.05863,0.04866 0.05621,0.05847 -0.116188,0.471052 -0.06952,0.166364 -0.159753,0.468331 -0.200527,0.671042 -0.05221,0.259523 -0.134531,0.497268 -0.278249,0.803566 -0.233748,0.4981645 -0.214308,0.4270675 -0.342139,1.2510415 -0.05363,0.345718 -0.149008,0.808199 -0.211938,1.027725 -0.16633,0.580221 -0.604167,1.642158 -0.855198,2.074221 -0.104502,0.179858 -0.493279,1.113419 -0.619034,1.486473 l -0.102973,0.305453 0.153898,0.194692 c 0.08465,0.107085 0.1539,0.207536 0.1539,0.22323 0,0.05225 -0.08687,0.283139 -0.11369,0.302166 -0.01453,0.01031 -0.08046,0.296312 -0.146497,0.635559 -0.06604,0.339241 -0.151373,0.71042 -0.189635,0.824837 -0.105931,0.316806 -0.127279,0.448521 -0.115755,0.714187 0.03675,0.847344 0.247409,1.883022 0.626622,3.080696 0.0387,0.12228 0.05392,0.32561 0.05044,0.674871 -0.0072,0.729172 -0.05863,1.802391 -0.08973,1.87393 -0.01477,0.034 -0.0088,0.07296 0.01315,0.08657 0.06209,0.03836 0.0475,0.17625 -0.03494,0.330059 -0.06544,0.12209 -0.07499,0.211539 -0.07499,0.702434 0,0.50986 -0.0062,0.562747 -0.06561,0.564855 -0.03614,0.0015 0.006,0.03832 0.09373,0.08237 0.183705,0.09228 0.17748,0.05115 0.123357,0.815127 -0.107715,1.520444 -0.196857,2.528254 -0.245731,2.778208 -0.03063,0.156715 -0.05571,0.335129 -0.05571,0.396478 0,0.06135 -0.04217,0.235486 -0.09368,0.386967 -0.05152,0.151483 -0.111292,0.428602 -0.132821,0.615825 -0.09374,0.815274 -0.121947,0.952093 -0.286582,1.3902 -0.09301,0.24745 -0.277022,0.745168 -0.408942,1.106034 -0.131923,0.36087 -0.338619,0.850151 -0.459327,1.087289 -0.256264,0.503463 -0.383373,0.93385 -0.492742,1.66843 -0.106691,0.716584 -0.314702,1.636854 -0.487291,2.155836 -0.07887,0.237138 -0.347409,0.932773 -0.59677,1.545852 -0.456241,1.121714 -0.465605,1.152393 -0.647115,2.11944 -0.02146,0.11425 -0.07751,0.245328 -0.133267,0.311596 -0.08821,0.10483 -0.09267,0.126302 -0.0535,0.257048 0.05823,0.194331 0.05367,0.321938 -0.01348,0.377675 -0.09313,0.07729 -0.06717,0.149967 0.05356,0.149967 0.06039,0 0.138182,0.0284 0.172874,0.06308 0.0591,0.05911 0.05909,0.06599 -2.57e-4,0.10936 -0.03481,0.02545 -0.14482,0.0575 -0.244464,0.0712 l -0.181164,0.02493 -0.02175,0.399997 c -0.02531,0.465515 -0.100447,0.818631 -0.224697,1.056121 -0.04854,0.09279 -0.128372,0.24464 -0.177385,0.337433 -0.06565,0.124279 -0.134493,0.190936 -0.261402,0.253078 -0.218681,0.107075 -0.274725,0.104283 -0.494451,-0.02464 z m 5.64464,-40.4208255 c -0.384205,-0.08039 -0.637159,-0.26145 -0.595753,-0.426417 0.09622,-0.383387 2.08394,-0.73951 3.488585,-0.625021 0.632173,0.05152 0.804202,0.153861 0.696347,0.414237 -0.09093,0.219531 -0.494399,0.402865 -1.24643,0.566369 -0.326886,0.07107 -0.519303,0.08512 -1.284316,0.09381 -0.494903,0.0056 -0.971197,-0.0048 -1.058433,-0.02298 z m -0.609993,-0.63034 c 0,-0.08271 0.25539,-0.287494 0.508383,-0.407642 0.559494,-0.265704 1.781251,-0.432414 2.609322,-0.356046 0.254569,0.02346 0.547211,0.06811 0.650316,0.09919 0.186744,0.05629 0.431616,0.219046 0.391142,0.259972 -0.01168,0.01182 -0.146682,-0.0063 -0.299944,-0.04036 -0.380686,-0.08454 -1.395667,-0.08338 -2.022075,0.0024 -0.794277,0.108666 -1.267897,0.230509 -1.790278,0.460553 -0.02579,0.01135 -0.04687,0.0033 -0.04687,-0.018 z"
       id="path2987"
       inkscape:connector-curvature="0" />
  </g>
</svg>
